PathFileType	4	(X/Y/Z)	s07c0201.trc
DataRate	CameraRate	NumFrames	NumMarkers	Units	OrigDataRate	OrigDataStartFrame	OrigNumFrames
200	200	7	48	mm	200	1250	2000
Frame#	Time	racr			lacr			c7			jug			rlel			rdr			llel			ldr			s2			lic			ric			lasi			rasi			rpsi			lpsi			rgt			lgt			rth1			rth2			rth3			rth4			rlfc			rmfc			rsh1			rsh2			rsh3			rsh4			rlmal			rcal			rtoe			rmt5			lth1			lth2			lth4			lth3			llfc			lmfc			lsh1			lsh2			lsh3			lsh4			llmal			lcal			ltoe			lmt5			SBIKE			LBIKE			RBIKE			
		X1	Y1	Z1	X2	Y2	Z2	X3	Y3	Z3	X4	Y4	Z4	X5	Y5	Z5	X6	Y6	Z6	X7	Y7	Z7	X8	Y8	Z8	X9	Y9	Z9	X10	Y10	Z10	X11	Y11	Z11	X12	Y12	Z12	X13	Y13	Z13	X14	Y14	Z14	X15	Y15	Z15	X16	Y16	Z16	X17	Y17	Z17	X18	Y18	Z18	X19	Y19	Z19	X20	Y20	Z20	X21	Y21	Z21	X22	Y22	Z22	X23	Y23	Z23	X24	Y24	Z24	X25	Y25	Z25	X26	Y26	Z26	X27	Y27	Z27	X28	Y28	Z28	X29	Y29	Z29	X30	Y30	Z30	X31	Y31	Z31	X32	Y32	Z32	X33	Y33	Z33	X34	Y34	Z34	X35	Y35	Z35	X36	Y36	Z36	X37	Y37	Z37	X38	Y38	Z38	X39	Y39	Z39	X40	Y40	Z40	X41	Y41	Z41	X42	Y42	Z42	X43	Y43	Z43	X44	Y44	Z44	X45	Y45	Z45	X46	Y46	Z46	X47	Y47	Z47	X48	Y48	Z48	
1250	6.2500	432.195314	1460.439862	-89.053241	430.497930	1432.175638	-379.166318	398.306779	1511.691284	-235.285124	352.302800	1364.459598	-233.963730	481.006453	1141.235441	54.157806	691.662612	950.903053	-55.196936	433.727349	1113.172267	-527.077113	674.198116	940.232657	-441.515236	-144.552543	1202.262846	-233.202899	1.522468	1282.369318	-368.456156	16.367013	1262.801901	-77.203129	44.720022	1211.809844	-341.231383	40.195209	1202.337681	-90.460670	-121.034820	1241.658174	-178.900817	-116.589896	1257.634876	-284.395782	-36.046749	1107.870388	-45.877694	-14.043497	1140.666943	-414.077860	45.223788	969.154585	-35.638172	97.975373	898.448386	-43.419662	110.208718	813.975136	-47.295373	129.567712	912.891920	-58.079988	164.355787	688.394937	-85.206784	149.623155	671.600943	-183.968762	145.046320	548.663715	-55.113288	160.131603	462.473987	-74.442081	134.205774	379.374247	-69.253713	173.266270	465.270898	-113.025810	119.827239	237.613484	-71.537010	60.481499	189.056052	-95.154321	349.464214	205.321718	-129.772966	283.803855	161.265774	-55.675042	92.634175	1089.858075	-414.643472	180.911775	1087.395966	-412.559236	191.046182	1120.085386	-399.646043	257.390899	1040.904635	-412.681386	411.951687	949.997872	-380.227502	403.965654	928.616266	-278.377285	321.346546	833.630209	-398.133225	279.778143	759.354661	-383.874784	203.958187	711.249228	-391.748297	284.373199	757.666018	-342.414418	107.228096	619.954971	-397.913588	32.619733	642.375966	-359.833368	208.188480	411.329859	-358.906368	137.164913	456.272235	-420.076741	-263.657667	974.906736	-235.126343	-83.223171	79.890221	-436.685848	-83.533358	78.840303	-39.128398	
1251	6.2550	434.684847	1460.314666	-91.886117	428.185141	1433.484985	-382.136507	398.190712	1513.148337	-236.983092	351.875598	1366.046982	-236.167327	481.630520	1141.340747	53.994733	692.005458	951.245162	-55.446976	432.576004	1112.744368	-525.638138	674.090251	940.279072	-441.286037	-143.397241	1202.767627	-232.246844	0.557922	1284.650854	-365.687568	19.062232	1260.694544	-75.092749	45.412170	1214.180807	-339.801210	42.196574	1200.784769	-88.863953	-119.771753	1241.197550	-175.909409	-116.462072	1258.537710	-280.664969	-34.730589	1106.331727	-44.871113	-13.403563	1144.865722	-413.290130	43.978339	966.989247	-34.389893	95.814301	895.356477	-41.749011	106.623321	810.726979	-45.361606	127.612063	909.280684	-55.734467	159.553155	684.757038	-84.689044	144.955966	668.402598	-183.783359	139.078053	545.295062	-55.101103	153.420007	459.159877	-74.465836	126.757062	376.313280	-69.360059	166.393080	461.641318	-112.692768	111.431086	234.876730	-71.750949	51.557806	186.913810	-95.449365	340.707232	199.214444	-129.657292	272.184037	154.446204	-55.432528	93.658603	1096.609465	-413.696957	181.967603	1095.879036	-411.197713	191.421392	1128.356619	-397.224943	259.373901	1050.895826	-412.267521	416.109922	962.040665	-379.358392	409.336329	939.751592	-277.428202	328.672512	843.800390	-397.679126	287.837164	768.822173	-383.955997	212.330423	720.116502	-392.204430	291.048203	764.983811	-345.804259	116.519964	625.139962	-398.269009	41.638845	647.201717	-360.089610	216.204722	416.045771	-357.888065	146.883729	461.762704	-420.463044	-263.550866	975.004687	-235.108984	-83.207602	79.963852	-436.680509	-83.554305	79.026560	-39.092412	
1252	6.2600	437.113377	1460.016206	-94.748137	425.699743	1434.812703	-385.186223	398.027491	1514.020538	-238.425602	351.812454	1366.922446	-237.943280	482.116696	1141.271912	53.885911	692.392162	951.654330	-55.442064	431.276650	1112.264533	-524.229140	673.962059	940.447160	-441.194659	-142.428898	1203.186448	-229.678375	-0.208429	1286.929408	-363.132233	22.181090	1258.552774	-73.482907	45.115160	1215.904049	-337.724321	44.183995	1199.370832	-87.432526	-118.657886	1240.903783	-173.114998	-116.145437	1259.571005	-277.524451	-33.437586	1104.924318	-44.033259	-12.894664	1148.837909	-412.432097	43.105520	965.092657	-33.226317	93.830004	892.851285	-40.287803	103.596407	808.024542	-43.775958	125.921122	906.370947	-54.114604	155.504843	681.628391	-84.449008	141.422804	665.575976	-183.204624	133.439669	542.749675	-55.227185	146.979346	456.349192	-74.650874	119.372365	373.783463	-69.617008	160.167691	458.835501	-112.732525	102.885373	232.845179	-71.915652	42.361060	185.680565	-95.730582	331.871653	193.369557	-129.644319	263.413347	150.594144	-55.589352	94.406019	1102.759524	-412.592710	182.715579	1103.532383	-409.776208	191.562683	1135.823135	-395.002576	260.938006	1059.932369	-411.749331	418.524043	972.431925	-379.368118	413.863721	950.004656	-276.264975	334.853938	852.701239	-396.856499	294.705055	777.393149	-383.944577	219.828252	727.839691	-392.371226	300.122164	775.144176	-342.334077	125.264180	630.010931	-398.648467	50.027991	651.149919	-360.411722	227.744513	422.048310	-358.141260	156.943041	466.616365	-420.436169	-263.404696	975.119084	-235.021653	-83.155967	80.029049	-436.698511	-83.527434	79.064117	-39.109465	
1253	6.2650	439.520586	1459.553536	-97.588191	423.036341	1436.159027	-388.145190	398.051533	1514.597040	-239.848053	351.679975	1367.583951	-239.545009	482.341010	1141.053853	53.747255	692.747841	952.120681	-55.235988	429.830026	1111.941729	-522.937620	673.827795	940.739319	-441.239030	-141.731848	1203.777845	-226.990863	-0.880544	1289.148604	-360.653537	24.485456	1256.730347	-71.664319	44.342917	1217.346049	-335.169518	45.944978	1198.157788	-86.090153	-117.456132	1240.848853	-170.497213	-116.436806	1261.323275	-273.811092	-32.075876	1103.630080	-43.328664	-12.641143	1152.510046	-411.451727	42.428187	963.607175	-32.383215	92.188806	890.677855	-39.171485	100.698964	805.717358	-42.894692	124.527694	903.903804	-52.571444	151.936206	679.068315	-84.456859	137.973612	663.527870	-183.584843	128.503500	540.771773	-55.483740	140.981709	454.249365	-75.027461	112.471193	371.988224	-70.076903	154.348057	456.530560	-113.011742	94.226587	231.235706	-72.277069	33.194274	185.364645	-95.967757	322.675019	188.193436	-129.497911	252.841373	147.873334	-54.564985	94.927847	1108.056458	-411.326886	183.209831	1110.287646	-408.453848	191.597315	1142.352573	-393.019077	262.093264	1067.879469	-411.105421	422.254753	982.278838	-376.916820	417.324127	958.869348	-274.967751	339.653047	860.492680	-395.951536	300.539267	784.395394	-383.383260	226.287030	733.983300	-392.426941	305.579616	782.217017	-342.092942	134.606892	633.804892	-397.491029	57.562004	653.954636	-360.873558	238.268203	427.438962	-358.285304	167.378152	470.899645	-420.269475	-263.323092	975.180265	-234.915338	-83.206500	80.084990	-436.686832	-83.497024	79.077155	-39.114169	
1254	6.2700	441.933326	1458.874391	-100.493901	420.249859	1437.491507	-391.023619	398.069137	1514.606296	-241.122306	351.939514	1367.553015	-240.871270	482.287824	1140.682864	53.659901	693.079414	952.729965	-54.804776	428.063365	1111.531049	-521.485617	673.694653	941.068277	-441.332958	-141.137863	1204.399446	-224.677165	-1.470172	1291.381567	-358.312005	26.370321	1255.325296	-69.746166	44.586021	1219.225781	-334.144998	47.555989	1197.112331	-84.945137	-116.544855	1240.820991	-167.943905	-116.199981	1262.598410	-271.109009	-30.759661	1102.505383	-42.491031	-12.484662	1155.949975	-410.584515	41.927259	962.537557	-31.812092	91.047620	888.832229	-38.289278	98.244609	804.008790	-42.473758	123.308420	902.052782	-50.970036	149.252265	677.121714	-84.738789	134.800088	662.530350	-184.296597	124.361998	539.329592	-56.032325	135.579931	452.760114	-75.653593	105.875642	370.878536	-70.640412	148.975969	454.850666	-113.647057	85.374848	230.441952	-72.708950	23.391293	184.926098	-96.315752	313.353417	183.762228	-129.414815	242.019861	144.128959	-54.956911	95.310285	1112.659002	-410.139918	183.549694	1115.903338	-407.160400	191.550828	1147.823334	-391.166313	262.930814	1074.380470	-410.320167	424.155705	989.898537	-375.539881	419.516613	966.315339	-273.578777	343.726054	866.611461	-395.137494	305.501238	790.482587	-383.055673	232.294598	738.527475	-392.079805	310.575801	787.919092	-341.433743	141.672505	636.811469	-398.415983	64.385342	655.602855	-361.451974	249.119224	432.013710	-357.739990	177.792164	474.556738	-420.203426	-263.304582	975.228548	-234.823167	-83.206568	80.092243	-436.659555	-83.519283	79.095723	-39.085246	
1255	6.2750	444.342362	1457.979503	-103.404001	417.319053	1438.888000	-393.750347	398.336917	1514.612271	-242.150384	351.891459	1367.694211	-242.061692	481.975640	1140.179540	53.571458	693.366913	953.285677	-54.310749	426.549520	1111.459413	-520.382901	673.572516	941.411637	-441.445424	-140.632598	1204.839176	-222.937053	-2.190915	1293.613380	-356.110218	28.298217	1253.879379	-68.216609	44.361961	1221.273872	-332.763285	49.032752	1196.373612	-83.912567	-115.959845	1240.862256	-164.812092	-116.142660	1264.061819	-268.488469	-29.439281	1101.559615	-41.717142	-12.661082	1158.911387	-409.558488	41.750416	961.585547	-31.431223	90.427216	887.451796	-37.738927	96.460679	802.508968	-42.254145	122.680969	900.501792	-49.914503	147.716155	675.721557	-85.186363	133.893571	661.284135	-184.761268	121.058145	538.544511	-56.721944	130.644631	451.798415	-76.414877	99.598697	370.465520	-71.300018	144.512912	453.694442	-114.176544	76.574794	230.270859	-73.320209	14.363792	186.084804	-96.841799	303.987637	179.798717	-129.282800	232.336212	142.013499	-54.598816	95.587323	1116.384978	-409.048953	183.805801	1120.261386	-405.874485	191.543848	1152.091613	-389.444922	263.452152	1079.350276	-409.296963	425.522223	996.118660	-374.026211	420.537074	972.390170	-272.000782	347.023854	871.733175	-394.109015	309.944716	795.010025	-382.128836	237.994560	741.708815	-391.388269	314.758036	792.677924	-340.481442	147.775603	638.382140	-398.502291	70.749564	656.336882	-361.700825	260.117651	436.515201	-357.810737	187.927770	477.782562	-420.555670	-263.383250	975.197246	-234.773321	-83.197974	80.083632	-436.670043	-83.505979	79.075791	-39.078849	
1256	6.2800	446.696742	1456.881231	-106.315664	414.315934	1440.162007	-395.992765	398.690192	1514.306747	-243.102627	351.830814	1367.555970	-243.082641	481.483892	1139.559966	53.528039	693.644218	953.751125	-53.589647	425.186869	1111.438624	-519.261296	673.431301	941.840415	-441.603801	-140.600119	1205.706362	-220.796662	-3.139737	1295.905653	-354.076119	30.094327	1252.696527	-66.809073	43.767707	1223.194914	-331.733705	50.245770	1195.743782	-83.038919	-115.641014	1241.306877	-162.055936	-116.010973	1265.518358	-266.336161	-28.074725	1101.197331	-41.176936	-13.088642	1161.613317	-408.528505	41.830455	961.062213	-31.200696	90.208630	886.428086	-37.228053	95.538545	801.705293	-42.207690	122.598411	899.454060	-49.058550	147.279331	674.975609	-85.826140	134.031787	660.731577	-185.287854	118.316146	538.476707	-57.412386	125.503754	451.284197	-77.390009	93.702085	370.703719	-71.938120	139.611300	452.979605	-115.218615	67.983255	231.214829	-73.691674	5.031226	188.008292	-97.206103	294.503152	176.205790	-129.356251	222.039124	139.970920	-54.697391	95.607304	1119.183331	-408.020221	183.851867	1123.331170	-404.557468	191.430501	1155.064729	-387.894334	263.690674	1082.648188	-407.737512	426.300699	1001.241712	-372.270549	420.806264	977.331554	-270.418992	349.567597	875.956117	-392.991820	314.818920	798.340708	-381.426082	242.749405	744.100512	-390.822158	318.491639	796.737396	-339.219282	153.605122	640.271172	-399.249108	76.260246	655.820727	-362.102521	271.283049	440.959005	-357.940538	197.973950	480.394972	-420.973220	-263.533256	975.146094	-234.798300	-83.215046	80.039176	-436.677634	-83.608998	79.235840	-39.030665	
